<?xml version="1.0" encoding="utf-8"?>
<!-- Generator: Adobe Illustrator 16.0.0, SVG Export Plug-In . SVG Version: 6.00 Build 0)  -->
<!DOCTYPE svg PUBLIC "-//W3C//DTD SVG 1.1//EN" "http://www.w3.org/Graphics/SVG/1.1/DTD/svg11.dtd">
<svg version="1.1" id="Calque_1" xmlns="http://www.w3.org/2000/svg" xmlns:xlink="http://www.w3.org/1999/xlink" x="0px" y="0px"
	 width="800px" height="300px" viewBox="0 0 800 300" enable-background="new 0 0 800 300" xml:space="preserve">
<g>
	<path fill="#FFFFFF" d="M177.24,169.933c-4.667,0-8.827-0.728-12.479-2.182c-3.652-1.454-6.713-3.433-9.181-5.936
		c-2.47-2.502-4.347-5.377-5.631-8.623c-1.286-3.248-1.928-6.662-1.928-10.247c0-3.856,0.625-7.508,1.877-10.958
		c1.251-3.449,3.11-6.458,5.58-9.029c2.468-2.57,5.512-4.616,9.131-6.138c3.618-1.521,7.828-2.283,12.631-2.283
		c4.733,0,8.928,0.761,12.581,2.283c3.652,1.522,6.712,3.551,9.182,6.087c2.468,2.537,4.328,5.479,5.58,8.827
		c1.251,3.348,1.877,6.848,1.877,10.5c0,1.014-0.051,2.046-0.152,3.094c-0.101,1.05-0.22,1.979-0.355,2.791h-37.438
		c0.203,2.84,1.251,4.888,3.146,6.139c1.893,1.252,3.957,1.877,6.189,1.877c2.095,0,4.074-0.474,5.935-1.421
		c1.86-0.946,3.095-2.265,3.704-3.957l16.334,4.667c-2.166,4.262-5.497,7.745-9.993,10.45
		C189.329,168.58,183.8,169.933,177.24,169.933z M185.762,136.553c-0.339-2.57-1.286-4.599-2.84-6.087
		c-1.557-1.487-3.551-2.232-5.986-2.232c-2.435,0-4.431,0.745-5.985,2.232c-1.557,1.489-2.503,3.518-2.841,6.087H185.762z"/>
	<path fill="#FFFFFF" d="M225.229,115.552l7.609,13.088l1.015,2.13l1.015-2.13l7.609-13.088h19.581l-17.856,26.683l18.363,26.684
		h-19.581l-8.218-13.088l-0.913-2.03l-0.913,2.03l-8.218,13.088H205.14l18.364-26.684l-17.856-26.683H225.229z"/>
	<path fill="#FFFFFF" d="M302.74,169.933c-3.855,0-7.203-0.762-10.044-2.283c-2.84-1.522-5.039-3.737-6.595-6.646v29.523h-19.276
		v-74.976h16.741v8.015c1.892-2.908,4.226-5.14,7-6.696c2.772-1.555,6.188-2.333,10.247-2.333c3.516,0,6.798,0.694,9.841,2.08
		c3.043,1.387,5.647,3.297,7.812,5.732c2.164,2.435,3.871,5.343,5.124,8.725c1.25,3.383,1.877,7.035,1.877,10.957
		c0,3.992-0.576,7.696-1.725,11.109c-1.151,3.417-2.74,6.376-4.769,8.878c-2.029,2.503-4.431,4.448-7.204,5.834
		C308.995,169.238,305.986,169.933,302.74,169.933z M296.043,153.698c1.421,0,2.722-0.304,3.906-0.912
		c1.182-0.608,2.197-1.454,3.043-2.537c0.845-1.081,1.522-2.333,2.029-3.754c0.507-1.419,0.761-2.942,0.761-4.565
		c0-3.381-0.964-6.087-2.891-8.117c-1.928-2.029-4.481-3.043-7.66-3.043c-3.586,0-6.629,1.826-9.131,5.479v9.232
		c0.947,2.369,2.334,4.329,4.16,5.884C292.087,152.922,294.015,153.698,296.043,153.698z"/>
	<path fill="#FFFFFF" d="M332.059,94.854h19.277v52.858c0,4.059,1.657,6.087,4.972,6.087c0.812,0,1.689-0.134,2.638-0.405
		c0.946-0.27,1.826-0.643,2.638-1.115l2.435,14.203c-2.3,1.083-4.887,1.928-7.761,2.536c-2.875,0.609-5.598,0.914-8.167,0.914
		c-5.141,0-9.098-1.319-11.87-3.957c-2.774-2.638-4.16-6.459-4.16-11.465V94.854z"/>
	<path fill="#FFFFFF" d="M394.758,169.933c-4.803,0-9.014-0.762-12.631-2.283c-3.619-1.522-6.662-3.551-9.13-6.087
		c-2.47-2.537-4.33-5.479-5.58-8.827c-1.253-3.348-1.877-6.848-1.877-10.501c0-3.652,0.624-7.153,1.877-10.5
		c1.25-3.348,3.11-6.29,5.58-8.827c2.468-2.536,5.512-4.565,9.13-6.087c3.618-1.521,7.829-2.283,12.631-2.283
		c4.733,0,8.929,0.761,12.581,2.283c3.652,1.522,6.712,3.551,9.182,6.087c2.468,2.537,4.327,5.479,5.58,8.827
		c1.251,3.348,1.877,6.848,1.877,10.5c0,3.653-0.626,7.153-1.877,10.501c-1.253,3.348-3.112,6.29-5.58,8.827
		c-2.47,2.536-5.529,4.564-9.182,6.087C403.687,169.171,399.491,169.933,394.758,169.933z M385.323,142.234
		c0,3.586,0.878,6.392,2.638,8.421c1.758,2.029,4.024,3.043,6.797,3.043c2.773,0,5.038-1.014,6.798-3.043
		c1.758-2.029,2.638-4.835,2.638-8.421c0-3.584-0.88-6.392-2.638-8.421c-1.76-2.029-4.025-3.043-6.798-3.043
		c-2.773,0-5.04,1.015-6.797,3.043C386.201,135.843,385.323,138.65,385.323,142.234z"/>
	<path fill="#FFFFFF" d="M466.994,131.987c-3.721,0-7.102,0.406-10.146,1.217c-3.043,0.812-5.311,2.166-6.798,4.059v31.655h-19.276
		v-53.366h17.653v10.146c1.894-3.584,4.244-6.341,7.052-8.269c2.806-1.928,5.834-2.892,9.08-2.892c1.284,0,2.096,0.035,2.435,0.102
		V131.987z"/>
	<path fill="#FFFFFF" d="M493.271,169.933c-4.126,0-8.151-0.678-12.074-2.03s-7.305-3.313-10.145-5.884l3.146-4.667
		c2.977,2.436,6,4.261,9.079,5.479c3.076,1.217,6.374,1.826,9.894,1.826c4.26,0,7.658-0.862,10.194-2.588
		c2.538-1.724,3.807-4.175,3.807-7.354c0-1.487-0.34-2.723-1.015-3.703c-0.678-0.979-1.675-1.843-2.995-2.587
		c-1.318-0.743-2.976-1.402-4.97-1.978c-1.995-0.574-4.313-1.167-6.951-1.776c-3.042-0.743-5.681-1.487-7.911-2.232
		c-2.233-0.744-4.076-1.588-5.531-2.536c-1.455-0.946-2.536-2.114-3.245-3.5c-0.711-1.385-1.067-3.128-1.067-5.225
		c0-2.638,0.524-4.972,1.574-7c1.047-2.029,2.468-3.703,4.26-5.022c1.793-1.319,3.889-2.317,6.29-2.994
		c2.401-0.675,4.956-1.014,7.661-1.014c4.06,0,7.745,0.659,11.059,1.979c3.313,1.319,5.986,3.061,8.015,5.225l-3.349,4.058
		c-1.961-2.029-4.347-3.551-7.152-4.565c-2.807-1.014-5.73-1.521-8.775-1.521c-1.827,0-3.517,0.187-5.072,0.558
		c-1.558,0.372-2.926,0.963-4.109,1.775c-1.185,0.812-2.114,1.843-2.79,3.094c-0.677,1.252-1.015,2.723-1.015,4.413
		c0,1.42,0.237,2.571,0.709,3.45c0.475,0.879,1.253,1.641,2.336,2.283c1.081,0.644,2.449,1.217,4.107,1.725
		c1.658,0.508,3.67,1.032,6.037,1.573c3.382,0.812,6.355,1.623,8.929,2.435c2.57,0.812,4.716,1.76,6.442,2.841
		c1.725,1.082,3.026,2.401,3.904,3.957c0.878,1.557,1.321,3.45,1.321,5.681c0,4.87-1.861,8.726-5.581,11.566
		S499.561,169.933,493.271,169.933z"/>
	<path fill="#FFFFFF" d="M527.157,185.15c0.54,0.067,1.065,0.117,1.572,0.152c0.508,0.033,0.997,0.05,1.472,0.05
		c1.218,0,2.181-0.168,2.892-0.507c0.71-0.339,1.402-1.082,2.08-2.231c0.675-1.151,1.436-2.808,2.281-4.972
		c0.846-2.165,2.046-5.072,3.603-8.725l-23.03-52.859h7.103l19.58,46.468l18.161-46.468h6.595l-27.394,68.179
		c-0.745,1.961-1.979,3.668-3.703,5.124c-1.725,1.453-4.076,2.182-7.051,2.182c-0.678,0-1.319-0.019-1.929-0.052
		c-0.608-0.035-1.354-0.118-2.231-0.253V185.15z"/>
	<path fill="#FFFFFF" d="M595.437,169.933c-4.127,0-8.151-0.678-12.073-2.03c-3.923-1.353-7.306-3.313-10.146-5.884l3.145-4.667
		c2.977,2.436,6.002,4.261,9.08,5.479c3.077,1.217,6.375,1.826,9.893,1.826c4.262,0,7.66-0.862,10.196-2.588
		c2.537-1.724,3.805-4.175,3.805-7.354c0-1.487-0.34-2.723-1.015-3.703c-0.678-0.979-1.674-1.843-2.993-2.587
		c-1.318-0.743-2.977-1.402-4.971-1.978c-1.996-0.574-4.312-1.167-6.95-1.776c-3.044-0.743-5.682-1.487-7.913-2.232
		c-2.232-0.744-4.075-1.588-5.529-2.536c-1.455-0.946-2.537-2.114-3.247-3.5c-0.71-1.385-1.065-3.128-1.065-5.225
		c0-2.638,0.523-4.972,1.573-7c1.047-2.029,2.468-3.703,4.261-5.022c1.791-1.319,3.888-2.317,6.289-2.994
		c2.4-0.675,4.955-1.014,7.661-1.014c4.059,0,7.744,0.659,11.059,1.979c3.313,1.319,5.986,3.061,8.015,5.225l-3.348,4.058
		c-1.963-2.029-4.348-3.551-7.152-4.565c-2.808-1.014-5.732-1.521-8.776-1.521c-1.826,0-3.518,0.187-5.073,0.558
		c-1.557,0.372-2.926,0.963-4.108,1.775c-1.184,0.812-2.115,1.843-2.79,3.094c-0.677,1.252-1.014,2.723-1.014,4.413
		c0,1.42,0.235,2.571,0.709,3.45c0.473,0.879,1.251,1.641,2.334,2.283c1.081,0.644,2.451,1.217,4.108,1.725
		c1.657,0.508,3.669,1.032,6.037,1.573c3.381,0.812,6.356,1.623,8.928,2.435c2.57,0.812,4.718,1.76,6.442,2.841
		c1.725,1.082,3.027,2.401,3.906,3.957c0.878,1.557,1.319,3.45,1.319,5.681c0,4.87-1.861,8.726-5.581,11.566
		S601.727,169.933,595.437,169.933z"/>
	<path fill="#FFFFFF" d="M652.658,166.382c-0.406,0.202-0.999,0.473-1.775,0.811c-0.779,0.34-1.674,0.677-2.689,1.015
		c-1.015,0.34-2.165,0.645-3.449,0.913c-1.286,0.27-2.638,0.406-4.059,0.406c-1.488,0-2.908-0.203-4.261-0.608
		c-1.354-0.406-2.536-1.031-3.552-1.878c-1.014-0.845-1.825-1.909-2.435-3.196c-0.608-1.283-0.913-2.771-0.913-4.463v-37.843h-7.305
		v-5.479h7.305V98.203h6.899v17.855H648.6v5.479h-12.175v35.916c0.134,1.962,0.827,3.398,2.08,4.313
		c1.251,0.912,2.688,1.369,4.312,1.369c1.961,0,3.687-0.32,5.175-0.965c1.486-0.642,2.435-1.098,2.84-1.369L652.658,166.382z"/>
	<path fill="#FFFFFF" d="M682.79,169.933c-3.855,0-7.391-0.728-10.602-2.182c-3.214-1.454-6.004-3.449-8.37-5.985
		c-2.368-2.537-4.211-5.463-5.529-8.776c-1.319-3.313-1.979-6.865-1.979-10.653c0-3.719,0.659-7.219,1.979-10.501
		c1.318-3.279,3.146-6.153,5.479-8.624c2.334-2.468,5.123-4.429,8.37-5.884c3.246-1.454,6.763-2.181,10.551-2.181
		c3.855,0,7.39,0.728,10.603,2.181c3.212,1.455,5.969,3.434,8.269,5.935c2.3,2.503,4.092,5.377,5.377,8.624
		c1.284,3.247,1.929,6.696,1.929,10.349c0,0.542,0,1.083,0,1.623c0,0.543-0.036,0.914-0.102,1.117h-45.25
		c0.203,2.84,0.862,5.462,1.979,7.863c1.115,2.401,2.553,4.481,4.312,6.239c1.759,1.76,3.771,3.129,6.037,4.109
		c2.265,0.981,4.683,1.471,7.254,1.471c1.689,0,3.381-0.236,5.073-0.711c1.689-0.472,3.246-1.115,4.666-1.927
		c1.421-0.812,2.705-1.809,3.855-2.993c1.149-1.183,2.03-2.485,2.639-3.906l5.985,1.623c-0.812,1.964-1.962,3.739-3.449,5.326
		c-1.489,1.591-3.213,2.978-5.175,4.16c-1.962,1.185-4.126,2.097-6.493,2.739C687.828,169.61,685.36,169.933,682.79,169.933z
		 M702.271,139.698c-0.203-2.841-0.863-5.428-1.979-7.762c-1.116-2.333-2.537-4.345-4.262-6.036
		c-1.726-1.69-3.721-3.009-5.985-3.957c-2.267-0.946-4.685-1.42-7.255-1.42c-2.571,0-5.006,0.474-7.305,1.42
		c-2.3,0.948-4.312,2.267-6.036,3.957c-1.725,1.691-3.111,3.72-4.159,6.087c-1.05,2.369-1.675,4.938-1.878,7.711H702.271z"/>
	<path fill="#FFFFFF" d="M798.145,168.918h-6.899v-29.524c0-6.154-0.98-10.686-2.941-13.595c-1.963-2.907-4.87-4.363-8.725-4.363
		c-2.03,0-3.941,0.373-5.732,1.116c-1.794,0.745-3.45,1.792-4.972,3.145c-1.521,1.354-2.858,2.96-4.008,4.819
		c-1.15,1.861-2.029,3.906-2.638,6.138v32.264h-6.898v-29.524c0-6.29-0.949-10.856-2.842-13.697
		c-1.895-2.841-4.803-4.261-8.725-4.261c-3.992,0-7.543,1.387-10.653,4.16c-3.111,2.774-5.344,6.427-6.695,10.958v32.365h-6.899
		v-52.859h6.29v11.972c2.164-4.058,5.005-7.219,8.522-9.485c3.516-2.266,7.405-3.399,11.667-3.399c4.465,0,8.031,1.252,10.704,3.754
		c2.671,2.503,4.312,5.783,4.921,9.841c4.937-9.063,11.733-13.595,20.393-13.595c2.975,0,5.494,0.542,7.558,1.623
		c2.063,1.083,3.72,2.623,4.972,4.616c1.251,1.996,2.164,4.397,2.739,7.204c0.573,2.807,0.862,5.935,0.862,9.385V168.918z"/>
</g>
<g>
	<polygon fill="#F37B8E" points="77.978,96.201 51.783,81.076 51.783,111.318 	"/>
	<g>
		<polygon fill="#E84379" points="104.143,111.318 77.978,96.201 77.978,126.436 		"/>
		<polygon fill="#F37B8E" points="104.143,141.553 104.143,111.318 77.978,126.436 		"/>
	</g>
	<polygon fill="#A07698" points="25.587,96.201 25.587,126.436 51.783,111.318 	"/>
	<polygon fill="#E84379" points="51.783,81.076 25.587,96.201 51.783,111.318 	"/>
	<g>
		<polygon fill="#A07698" points="-0.58,111.318 -0.58,141.553 25.587,126.436 		"/>
		<polygon fill="#6B2C80" points="25.587,96.201 -0.58,111.318 25.587,126.436 		"/>
	</g>
	<polygon fill="#F37B8E" points="51.783,141.553 25.587,126.436 25.587,156.677 	"/>
	<polygon fill="#A07698" points="-0.58,141.553 -0.58,171.796 25.587,156.677 	"/>
	<polygon fill="#E84379" points="25.587,126.436 -0.58,141.553 25.587,156.677 	"/>
	<polygon fill="#6B2C80" points="25.587,156.677 -0.58,171.796 25.587,186.909 	"/>
	<polygon fill="#F37B8E" points="51.783,202.023 77.978,186.909 51.783,171.796 	"/>
	<polygon fill="#E84379" points="51.783,171.796 25.587,186.909 51.783,202.023 	"/>
	<g>
		<polygon fill="#E84379" points="104.143,141.553 77.978,126.436 77.978,156.677 		"/>
		<polygon fill="#A07698" points="104.143,171.796 104.143,141.553 77.978,156.677 		"/>
		<polygon fill="#6B2C80" points="77.978,186.909 104.143,171.796 77.978,156.677 		"/>
		<polygon fill="#A07698" points="77.978,126.436 51.783,141.553 77.978,156.677 		"/>
		<polygon fill="#A07698" points="77.978,156.677 51.783,171.796 77.978,186.909 		"/>
	</g>
</g>
</svg>
