<?xml version="1.0" encoding="utf-8"?>
<!-- Generator: Adobe Illustrator 16.0.0, SVG Export Plug-In . SVG Version: 6.00 Build 0)  -->
<!DOCTYPE svg PUBLIC "-//W3C//DTD SVG 1.1//EN" "http://www.w3.org/Graphics/SVG/1.1/DTD/svg11.dtd">
<svg version="1.1" id="Calque_1" xmlns="http://www.w3.org/2000/svg" xmlns:xlink="http://www.w3.org/1999/xlink" x="0px" y="0px"
	 width="800px" height="300px" viewBox="0 0 800 300" enable-background="new 0 0 800 300" xml:space="preserve">
<g>
	
		<linearGradient id="XMLID_2_" gradientUnits="userSpaceOnUse" x1="597.5439" y1="24.5591" x2="451.0285" y2="153.2869" gradientTransform="matrix(-0.9016 0.4326 0.4326 0.9016 846.3669 -192.5508)">
		<stop  offset="0" style="stop-color:#ED2C92"/>
		<stop  offset="0.0644" style="stop-color:#DD4A9A"/>
		<stop  offset="0.1981" style="stop-color:#B974AE"/>
		<stop  offset="0.3879" style="stop-color:#6B9BCE"/>
		<stop  offset="0.4716" style="stop-color:#01AADD"/>
		<stop  offset="0.7704" style="stop-color:#FED401"/>
		<stop  offset="1" style="stop-color:#ED2029"/>
	</linearGradient>
	<polygon id="XMLID_2128_" fill="url(#XMLID_2_)" points="405.591,86.572 480.444,87.645 434.446,146.715 359.585,145.636 	"/>
	<polygon id="XMLID_4713_" fill="#FFFFFF" points="393.844,78.643 467.694,66.346 432.957,132.673 359.109,144.968 	"/>
	
		<linearGradient id="XMLID_3_" gradientUnits="userSpaceOnUse" x1="587.1309" y1="12.7109" x2="440.6177" y2="141.4367" gradientTransform="matrix(-0.9016 0.4326 0.4326 0.9016 846.3669 -192.5508)">
		<stop  offset="0" style="stop-color:#ED2C92"/>
		<stop  offset="0.0644" style="stop-color:#DD4A9A"/>
		<stop  offset="0.1981" style="stop-color:#B974AE"/>
		<stop  offset="0.3879" style="stop-color:#6B9BCE"/>
		<stop  offset="0.4716" style="stop-color:#01AADD"/>
		<stop  offset="0.7704" style="stop-color:#FED401"/>
		<stop  offset="1" style="stop-color:#ED2029"/>
	</linearGradient>
	<polygon id="XMLID_4712_" fill="url(#XMLID_3_)" points="380.873,72.936 451.347,47.666 429.001,119.118 358.523,144.389 	"/>
	<polygon id="XMLID_4443_" fill="#FFFFFF" points="367.091,69.628 431.934,32.197 422.686,106.494 357.844,143.92 	"/>
	
		<linearGradient id="XMLID_4_" gradientUnits="userSpaceOnUse" x1="582.0342" y1="6.9038" x2="435.5176" y2="135.6326" gradientTransform="matrix(-0.9016 0.4326 0.4326 0.9016 846.3669 -192.5508)">
		<stop  offset="0" style="stop-color:#ED2C92"/>
		<stop  offset="0.0644" style="stop-color:#DD4A9A"/>
		<stop  offset="0.1981" style="stop-color:#B974AE"/>
		<stop  offset="0.3879" style="stop-color:#6B9BCE"/>
		<stop  offset="0.4716" style="stop-color:#01AADD"/>
		<stop  offset="0.7704" style="stop-color:#FED401"/>
		<stop  offset="1" style="stop-color:#ED2029"/>
	</linearGradient>
	<polygon id="XMLID_4442_" fill="url(#XMLID_4_)" points="352.94,68.833 410.063,20.441 414.214,95.198 357.092,143.584 	"/>
	<polygon id="XMLID_3547_" fill="#FFFFFF" points="338.873,70.571 386.461,12.767 403.869,85.589 356.289,143.389 	"/>
	
		<linearGradient id="XMLID_5_" gradientUnits="userSpaceOnUse" x1="582.9014" y1="7.8916" x2="436.386" y2="136.6193" gradientTransform="matrix(-0.9016 0.4326 0.4326 0.9016 846.3669 -192.5508)">
		<stop  offset="0" style="stop-color:#ED2C92"/>
		<stop  offset="0.0644" style="stop-color:#DD4A9A"/>
		<stop  offset="0.1981" style="stop-color:#B974AE"/>
		<stop  offset="0.3879" style="stop-color:#6B9BCE"/>
		<stop  offset="0.4716" style="stop-color:#01AADD"/>
		<stop  offset="0.7704" style="stop-color:#FED401"/>
		<stop  offset="1" style="stop-color:#ED2029"/>
	</linearGradient>
	<polygon id="XMLID_3545_" fill="url(#XMLID_5_)" points="325.347,74.799 361.857,9.433 391.973,77.983 355.463,143.342 	"/>
	<path id="XMLID_2129_" opacity="0.2" fill="#231F20" d="M361.857,9.433c0,0-7.473,21.255-2.374,64.959
		c5.163,44.274-4.021,68.95-4.021,68.95l36.51-65.359L361.857,9.433z"/>
</g>
<g>
	<path fill="#FFFFFF" d="M36.088,264.1c-5.737,0-10.851-0.895-15.341-2.681c-4.49-1.788-8.253-4.22-11.287-7.298
		c-3.037-3.074-5.344-6.609-6.922-10.601c-1.581-3.991-2.37-8.188-2.37-12.597c0-4.74,0.767-9.229,2.307-13.472
		c1.538-4.239,3.824-7.939,6.859-11.1c3.035-3.158,6.776-5.675,11.226-7.547c4.447-1.869,9.624-2.806,15.528-2.806
		c5.819,0,10.975,0.937,15.466,2.806c4.49,1.872,8.251,4.367,11.288,7.484c3.034,3.119,5.32,6.735,6.859,10.852
		c1.538,4.115,2.307,8.419,2.307,12.908c0,1.248-0.063,2.517-0.187,3.804c-0.125,1.291-0.271,2.433-0.437,3.431H25.361
		c0.25,3.492,1.538,6.008,3.867,7.546c2.327,1.539,4.864,2.308,7.608,2.308c2.576,0,5.008-0.58,7.296-1.747
		c2.286-1.163,3.804-2.784,4.553-4.863l20.081,5.736c-2.663,5.239-6.757,9.522-12.286,12.848
		C50.949,262.438,44.152,264.1,36.088,264.1z M46.564,223.065c-0.417-3.158-1.581-5.653-3.492-7.482
		c-1.914-1.828-4.366-2.744-7.359-2.744c-2.994,0-5.447,0.916-7.359,2.744c-1.913,1.829-3.077,4.324-3.492,7.482H46.564z"/>
	<path fill="#FFFFFF" d="M95.082,197.247l9.354,16.091l1.248,2.618l1.246-2.618l9.354-16.091h24.072l-21.951,32.803l22.575,32.803
		h-24.072l-10.103-16.089l-1.122-2.495l-1.123,2.495l-10.104,16.089H70.387l22.575-32.803L71.01,197.247H95.082z"/>
	<path fill="#FFFFFF" d="M190.369,264.1c-4.739,0-8.855-0.936-12.348-2.806c-3.492-1.872-6.195-4.594-8.106-8.171v36.296h-23.698
		v-92.172h20.58v9.854c2.327-3.574,5.195-6.319,8.605-8.232c3.408-1.911,7.608-2.869,12.598-2.869c4.322,0,8.356,0.854,12.098,2.558
		c3.742,1.705,6.942,4.054,9.604,7.047c2.66,2.993,4.758,6.57,6.298,10.726c1.538,4.159,2.307,8.649,2.307,13.471
		c0,4.907-0.707,9.46-2.12,13.657c-1.415,4.2-3.368,7.838-5.862,10.913c-2.495,3.077-5.447,5.469-8.855,7.172
		C198.058,263.246,194.359,264.1,190.369,264.1z M182.137,244.144c1.746,0,3.346-0.374,4.802-1.123
		c1.454-0.748,2.701-1.786,3.742-3.117c1.039-1.329,1.871-2.868,2.494-4.615c0.624-1.745,0.936-3.617,0.936-5.611
		c0-4.158-1.185-7.484-3.555-9.979c-2.37-2.493-5.51-3.741-9.417-3.741c-4.408,0-8.149,2.245-11.225,6.735v11.35
		c1.163,2.912,2.869,5.323,5.114,7.234C177.272,243.189,179.642,244.144,182.137,244.144z"/>
	<path fill="#FFFFFF" d="M226.413,171.804h23.697v64.98c0,4.989,2.037,7.484,6.111,7.484c0.997,0,2.077-0.166,3.243-0.499
		c1.163-0.331,2.246-0.789,3.243-1.372l2.994,17.462c-2.828,1.33-6.008,2.37-9.542,3.118c-3.535,0.748-6.881,1.122-10.04,1.122
		c-6.32,0-11.185-1.621-14.593-4.864c-3.41-3.242-5.113-7.939-5.113-14.094V171.804z"/>
	<path fill="#FFFFFF" d="M303.491,264.1c-5.904,0-11.081-0.936-15.528-2.806c-4.449-1.872-8.19-4.366-11.225-7.483
		c-3.036-3.118-5.322-6.735-6.86-10.853c-1.54-4.114-2.307-8.418-2.307-12.908c0-4.489,0.767-8.793,2.307-12.908
		c1.538-4.116,3.824-7.732,6.86-10.852c3.035-3.117,6.776-5.612,11.225-7.484c4.447-1.869,9.624-2.806,15.528-2.806
		c5.82,0,10.976,0.937,15.467,2.806c4.49,1.872,8.251,4.367,11.288,7.484c3.034,3.119,5.319,6.735,6.859,10.852
		c1.538,4.115,2.308,8.419,2.308,12.908c0,4.49-0.77,8.794-2.308,12.908c-1.54,4.117-3.825,7.734-6.859,10.853
		c-3.037,3.117-6.798,5.611-11.288,7.483C314.467,263.164,309.311,264.1,303.491,264.1z M291.892,230.05
		c0,4.408,1.08,7.857,3.243,10.353c2.161,2.494,4.946,3.741,8.356,3.741c3.409,0,6.194-1.247,8.357-3.741
		c2.161-2.495,3.243-5.944,3.243-10.353c0-4.406-1.082-7.857-3.243-10.353c-2.164-2.493-4.949-3.741-8.357-3.741
		c-3.41,0-6.195,1.248-8.356,3.741C292.972,222.192,291.892,225.644,291.892,230.05z"/>
	<path fill="#FFFFFF" d="M392.294,217.452c-4.574,0-8.73,0.501-12.473,1.497c-3.742,0.998-6.528,2.663-8.356,4.989v38.914h-23.698
		v-65.605h21.702v12.473c2.327-4.406,5.217-7.795,8.667-10.165c3.45-2.37,7.172-3.555,11.164-3.555c1.578,0,2.576,0.044,2.993,0.125
		V217.452z"/>
	<path fill="#FFFFFF" d="M424.596,264.1c-5.072,0-10.021-0.832-14.842-2.494c-4.823-1.663-8.98-4.073-12.473-7.234l3.866-5.737
		c3.659,2.993,7.379,5.239,11.163,6.735c3.782,1.497,7.836,2.245,12.16,2.245c5.238,0,9.418-1.061,12.535-3.181
		c3.119-2.119,4.678-5.133,4.678-9.043c0-1.828-0.417-3.346-1.247-4.552c-0.833-1.204-2.059-2.265-3.68-3.181
		c-1.621-0.914-3.66-1.724-6.112-2.433c-2.453-0.705-5.3-1.435-8.542-2.182c-3.743-0.915-6.985-1.829-9.729-2.744
		s-5.01-1.953-6.798-3.118c-1.789-1.163-3.118-2.597-3.991-4.303c-0.873-1.703-1.309-3.845-1.309-6.424
		c0-3.242,0.643-6.111,1.933-8.605c1.288-2.494,3.034-4.552,5.238-6.174c2.202-1.622,4.78-2.848,7.733-3.68
		c2.951-0.83,6.09-1.247,9.416-1.247c4.988,0,9.52,0.812,13.595,2.433c4.073,1.621,7.359,3.762,9.854,6.423l-4.116,4.989
		c-2.414-2.495-5.344-4.366-8.793-5.613c-3.452-1.247-7.048-1.87-10.789-1.87c-2.244,0-4.325,0.229-6.236,0.686
		c-1.914,0.458-3.598,1.185-5.052,2.183c-1.455,0.998-2.6,2.268-3.43,3.804c-0.832,1.54-1.247,3.349-1.247,5.425
		c0,1.747,0.29,3.162,0.873,4.242c0.581,1.081,1.537,2.017,2.869,2.806c1.328,0.791,3.013,1.496,5.051,2.12
		c2.037,0.624,4.509,1.269,7.421,1.934c4.157,0.998,7.814,1.995,10.977,2.993c3.158,0.998,5.798,2.163,7.92,3.492
		c2.12,1.331,3.719,2.952,4.801,4.864c1.079,1.914,1.621,4.24,1.621,6.984c0,5.987-2.286,10.727-6.858,14.219
		C438.481,262.354,432.329,264.1,424.596,264.1z"/>
	<path fill="#FFFFFF" d="M466.254,282.809c0.665,0.082,1.31,0.145,1.934,0.187c0.623,0.041,1.226,0.063,1.809,0.063
		c1.497,0,2.681-0.208,3.555-0.624c0.873-0.416,1.725-1.33,2.557-2.744c0.83-1.414,1.766-3.451,2.806-6.11
		c1.039-2.662,2.515-6.236,4.429-10.727l-28.313-64.981h8.73l24.072,57.124l22.325-57.124h8.107l-33.676,83.815
		c-0.916,2.409-2.432,4.509-4.553,6.298c-2.121,1.787-5.011,2.682-8.668,2.682c-0.833,0-1.621-0.021-2.37-0.063
		c-0.748-0.042-1.664-0.146-2.744-0.312V282.809z"/>
	<path fill="#FFFFFF" d="M550.192,264.1c-5.071,0-10.02-0.832-14.841-2.494c-4.824-1.663-8.98-4.073-12.472-7.234l3.866-5.737
		c3.657,2.993,7.377,5.239,11.162,6.735c3.782,1.497,7.836,2.245,12.16,2.245c5.238,0,9.418-1.061,12.535-3.181
		c3.119-2.119,4.678-5.133,4.678-9.043c0-1.828-0.418-3.346-1.248-4.552c-0.831-1.204-2.058-2.265-3.679-3.181
		c-1.621-0.914-3.66-1.724-6.112-2.433c-2.452-0.705-5.3-1.435-8.543-2.182c-3.743-0.915-6.984-1.829-9.729-2.744
		c-2.743-0.915-5.011-1.953-6.798-3.118c-1.788-1.163-3.118-2.597-3.991-4.303c-0.872-1.703-1.31-3.845-1.31-6.424
		c0-3.242,0.643-6.111,1.934-8.605c1.288-2.494,3.034-4.552,5.239-6.174c2.201-1.622,4.779-2.848,7.732-3.68
		c2.95-0.83,6.089-1.247,9.415-1.247c4.989,0,9.521,0.812,13.596,2.433c4.073,1.621,7.359,3.762,9.854,6.423l-4.115,4.989
		c-2.414-2.495-5.344-4.366-8.793-5.613c-3.452-1.247-7.048-1.87-10.789-1.87c-2.245,0-4.325,0.229-6.236,0.686
		c-1.915,0.458-3.598,1.185-5.052,2.183c-1.456,0.998-2.6,2.268-3.429,3.804c-0.834,1.54-1.248,3.349-1.248,5.425
		c0,1.747,0.29,3.162,0.872,4.242c0.581,1.081,1.539,2.017,2.87,2.806c1.328,0.791,3.013,1.496,5.05,2.12s4.51,1.269,7.421,1.934
		c4.158,0.998,7.815,1.995,10.977,2.993c3.159,0.998,5.8,2.163,7.92,3.492c2.12,1.331,3.72,2.952,4.802,4.864
		c1.08,1.914,1.621,4.24,1.621,6.984c0,5.987-2.287,10.727-6.858,14.219C564.079,262.354,557.927,264.1,550.192,264.1z"/>
	<path fill="#FFFFFF" d="M620.537,259.735c-0.499,0.249-1.228,0.582-2.183,0.997c-0.956,0.417-2.059,0.832-3.305,1.247
		c-1.247,0.417-2.662,0.791-4.241,1.123c-1.581,0.33-3.242,0.499-4.989,0.499c-1.829,0-3.575-0.251-5.237-0.749
		c-1.665-0.498-3.118-1.268-4.366-2.308c-1.247-1.038-2.245-2.349-2.993-3.929c-0.748-1.578-1.122-3.408-1.122-5.487v-46.522h-8.981
		v-6.735h8.981V175.92h8.481v21.951h14.966v6.735h-14.966v44.152c0.165,2.413,1.018,4.179,2.556,5.301
		c1.538,1.123,3.306,1.684,5.302,1.684c2.409,0,4.53-0.395,6.359-1.185c1.828-0.789,2.995-1.351,3.493-1.684L620.537,259.735z"/>
	<path fill="#FFFFFF" d="M657.582,264.1c-4.74,0-9.086-0.895-13.034-2.681c-3.95-1.788-7.381-4.241-10.29-7.359
		c-2.912-3.118-5.176-6.715-6.798-10.788c-1.621-4.073-2.433-8.438-2.433-13.097c0-4.571,0.812-8.875,2.433-12.908
		c1.622-4.032,3.866-7.566,6.736-10.602c2.868-3.035,6.298-5.445,10.289-7.235c3.991-1.787,8.313-2.681,12.972-2.681
		c4.74,0,9.084,0.894,13.033,2.681c3.948,1.79,7.337,4.223,10.165,7.297c2.825,3.078,5.03,6.611,6.61,10.602
		c1.578,3.991,2.369,8.232,2.369,12.722c0,0.667,0,1.332,0,1.997s-0.042,1.122-0.125,1.371h-55.626
		c0.25,3.492,1.061,6.715,2.432,9.665c1.372,2.953,3.138,5.51,5.302,7.67c2.161,2.164,4.634,3.848,7.42,5.052
		c2.785,1.207,5.758,1.81,8.918,1.81c2.078,0,4.157-0.291,6.236-0.873c2.078-0.581,3.991-1.372,5.738-2.37
		c1.745-0.997,3.324-2.224,4.738-3.679c1.413-1.454,2.495-3.056,3.243-4.802l7.359,1.995c-0.999,2.413-2.413,4.595-4.241,6.548
		c-1.831,1.955-3.95,3.66-6.361,5.113c-2.412,1.456-5.072,2.578-7.981,3.368C663.775,263.705,660.74,264.1,657.582,264.1z
		 M681.528,226.933c-0.249-3.492-1.061-6.674-2.432-9.542c-1.372-2.868-3.118-5.341-5.238-7.421
		c-2.121-2.078-4.574-3.699-7.359-4.865c-2.786-1.163-5.759-1.746-8.917-1.746c-3.162,0-6.154,0.583-8.98,1.746
		c-2.828,1.166-5.301,2.787-7.421,4.865c-2.12,2.08-3.826,4.574-5.114,7.482c-1.29,2.912-2.058,6.072-2.308,9.48H681.528z"/>
	<path fill="#FFFFFF" d="M799.391,262.853h-8.481v-36.295c0-7.564-1.206-13.136-3.616-16.713c-2.413-3.574-5.987-5.363-10.727-5.363
		c-2.494,0-4.845,0.459-7.048,1.372c-2.203,0.916-4.239,2.204-6.11,3.866c-1.871,1.665-3.515,3.64-4.926,5.926
		c-1.416,2.286-2.495,4.801-3.244,7.545v39.662h-8.481v-36.295c0-7.732-1.165-13.345-3.491-16.838
		c-2.329-3.492-5.905-5.238-10.727-5.238c-4.907,0-9.272,1.705-13.096,5.113c-3.826,3.411-6.569,7.901-8.233,13.471v39.787h-8.48
		v-64.981h7.733v14.718c2.66-4.989,6.152-8.874,10.477-11.661c4.323-2.784,9.104-4.179,14.344-4.179
		c5.487,0,9.872,1.539,13.158,4.615c3.284,3.076,5.301,7.108,6.05,12.097c6.067-11.141,14.425-16.712,25.067-16.712
		c3.66,0,6.755,0.667,9.294,1.995c2.534,1.331,4.571,3.224,6.11,5.676c1.537,2.453,2.66,5.406,3.367,8.855
		c0.706,3.451,1.061,7.296,1.061,11.536V262.853z"/>
</g>
</svg>
